<svg width="816" height="742" viewBox="0 0 816 742" fill="none" xmlns="http://www.w3.org/2000/svg">
<rect width="814" height="740" transform="translate(1 1)" fill="#1A1D22"/>
<path d="M1 1V0H0V1H1ZM38 1H39V0H38V1ZM1 2H38V0H1V2ZM37 1V38H39V1H37ZM2 38V1H0V38H2Z" fill="#2B2C2E"/>
<path d="M75 1H76V0H75V1ZM38 2H75V0H38V2ZM74 1V38H76V1H74Z" fill="#2B2C2E"/>
<path d="M112 1H113V0H112V1ZM75 2H112V0H75V2ZM111 1V38H113V1H111Z" fill="#2B2C2E"/>
<path d="M149 1H150V0H149V1ZM112 2H149V0H112V2ZM148 1V38H150V1H148Z" fill="#2B2C2E"/>
<path d="M186 1H187V0H186V1ZM149 2H186V0H149V2ZM185 1V38H187V1H185Z" fill="#2B2C2E"/>
<path d="M223 1H224V0H223V1ZM186 2H223V0H186V2ZM222 1V38H224V1H222Z" fill="#2B2C2E"/>
<path d="M260 1H261V0H260V1ZM223 2H260V0H223V2ZM259 1V38H261V1H259Z" fill="#2B2C2E"/>
<path d="M297 1H298V0H297V1ZM260 2H297V0H260V2ZM296 1V38H298V1H296Z" fill="#2B2C2E"/>
<path d="M334 1H335V0H334V1ZM297 2H334V0H297V2ZM333 1V38H335V1H333Z" fill="#2B2C2E"/>
<path d="M371 1H372V0H371V1ZM334 2H371V0H334V2ZM370 1V38H372V1H370Z" fill="#2B2C2E"/>
<path d="M408 1H409V0H408V1ZM371 2H408V0H371V2ZM407 1V38H409V1H407Z" fill="#2B2C2E"/>
<path d="M408 1V0H407V1H408ZM445 1H446V0H445V1ZM408 2H445V0H408V2ZM444 1V38H446V1H444ZM409 38V1H407V38H409Z" fill="#2B2C2E"/>
<path d="M482 1H483V0H482V1ZM445 2H482V0H445V2ZM481 1V38H483V1H481Z" fill="#2B2C2E"/>
<path d="M519 1H520V0H519V1ZM482 2H519V0H482V2ZM518 1V38H520V1H518Z" fill="#2B2C2E"/>
<path d="M556 1H557V0H556V1ZM519 2H556V0H519V2ZM555 1V38H557V1H555Z" fill="#2B2C2E"/>
<path d="M593 1H594V0H593V1ZM556 2H593V0H556V2ZM592 1V38H594V1H592Z" fill="#2B2C2E"/>
<path d="M630 1H631V0H630V1ZM593 2H630V0H593V2ZM629 1V38H631V1H629Z" fill="#2B2C2E"/>
<path d="M667 1H668V0H667V1ZM630 2H667V0H630V2ZM666 1V38H668V1H666Z" fill="#2B2C2E"/>
<path d="M704 1H705V0H704V1ZM667 2H704V0H667V2ZM703 1V38H705V1H703Z" fill="#2B2C2E"/>
<path d="M741 1H742V0H741V1ZM704 2H741V0H704V2ZM740 1V38H742V1H740Z" fill="#2B2C2E"/>
<path d="M778 1H779V0H778V1ZM741 2H778V0H741V2ZM777 1V38H779V1H777Z" fill="#2B2C2E"/>
<path d="M815 1H816V0H815V1ZM778 2H815V0H778V2ZM814 1V38H816V1H814Z" fill="#2B2C2E"/>
<path d="M1 38V37H0V38H1ZM38 38H39V37H38V38ZM1 39H38V37H1V39ZM37 38V75H39V38H37ZM2 75V38H0V75H2Z" fill="#2B2C2E"/>
<path d="M75 38H76V37H75V38ZM38 39H75V37H38V39ZM74 38V75H76V38H74Z" fill="#2B2C2E"/>
<path d="M112 38H113V37H112V38ZM75 39H112V37H75V39ZM111 38V75H113V38H111Z" fill="#2B2C2E"/>
<path d="M149 38H150V37H149V38ZM112 39H149V37H112V39ZM148 38V75H150V38H148Z" fill="#2B2C2E"/>
<path d="M186 38H187V37H186V38ZM149 39H186V37H149V39ZM185 38V75H187V38H185Z" fill="#2B2C2E"/>
<path d="M223 38H224V37H223V38ZM186 39H223V37H186V39ZM222 38V75H224V38H222Z" fill="#2B2C2E"/>
<path d="M260 38H261V37H260V38ZM223 39H260V37H223V39ZM259 38V75H261V38H259Z" fill="#2B2C2E"/>
<path d="M297 38H298V37H297V38ZM260 39H297V37H260V39ZM296 38V75H298V38H296Z" fill="#2B2C2E"/>
<path d="M334 38H335V37H334V38ZM297 39H334V37H297V39ZM333 38V75H335V38H333Z" fill="#2B2C2E"/>
<path d="M371 38H372V37H371V38ZM334 39H371V37H334V39ZM370 38V75H372V38H370Z" fill="#2B2C2E"/>
<path d="M408 38H409V37H408V38ZM371 39H408V37H371V39ZM407 38V75H409V38H407Z" fill="#2B2C2E"/>
<path d="M408 38V37H407V38H408ZM445 38H446V37H445V38ZM408 39H445V37H408V39ZM444 38V75H446V38H444ZM409 75V38H407V75H409Z" fill="#2B2C2E"/>
<path d="M482 38H483V37H482V38ZM445 39H482V37H445V39ZM481 38V75H483V38H481Z" fill="#2B2C2E"/>
<path d="M519 38H520V37H519V38ZM482 39H519V37H482V39ZM518 38V75H520V38H518Z" fill="#2B2C2E"/>
<path d="M556 38H557V37H556V38ZM519 39H556V37H519V39ZM555 38V75H557V38H555Z" fill="#2B2C2E"/>
<path d="M593 38H594V37H593V38ZM556 39H593V37H556V39ZM592 38V75H594V38H592Z" fill="#2B2C2E"/>
<path d="M630 38H631V37H630V38ZM593 39H630V37H593V39ZM629 38V75H631V38H629Z" fill="#2B2C2E"/>
<path d="M667 38H668V37H667V38ZM630 39H667V37H630V39ZM666 38V75H668V38H666Z" fill="#2B2C2E"/>
<path d="M704 38H705V37H704V38ZM667 39H704V37H667V39ZM703 38V75H705V38H703Z" fill="#2B2C2E"/>
<path d="M741 38H742V37H741V38ZM704 39H741V37H704V39ZM740 38V75H742V38H740Z" fill="#2B2C2E"/>
<path d="M778 38H779V37H778V38ZM741 39H778V37H741V39ZM777 38V75H779V38H777Z" fill="#2B2C2E"/>
<path d="M815 38H816V37H815V38ZM778 39H815V37H778V39ZM814 38V75H816V38H814Z" fill="#2B2C2E"/>
<path d="M1 75V74H0V75H1ZM38 75H39V74H38V75ZM1 76H38V74H1V76ZM37 75V112H39V75H37ZM2 112V75H0V112H2Z" fill="#2B2C2E"/>
<path d="M75 75H76V74H75V75ZM38 76H75V74H38V76ZM74 75V112H76V75H74Z" fill="#2B2C2E"/>
<path d="M112 75H113V74H112V75ZM75 76H112V74H75V76ZM111 75V112H113V75H111Z" fill="#2B2C2E"/>
<path d="M149 75H150V74H149V75ZM112 76H149V74H112V76ZM148 75V112H150V75H148Z" fill="#2B2C2E"/>
<path d="M186 75H187V74H186V75ZM149 76H186V74H149V76ZM185 75V112H187V75H185Z" fill="#2B2C2E"/>
<path d="M223 75H224V74H223V75ZM186 76H223V74H186V76ZM222 75V112H224V75H222Z" fill="#2B2C2E"/>
<path d="M260 75H261V74H260V75ZM223 76H260V74H223V76ZM259 75V112H261V75H259Z" fill="#2B2C2E"/>
<path d="M297 75H298V74H297V75ZM260 76H297V74H260V76ZM296 75V112H298V75H296Z" fill="#2B2C2E"/>
<path d="M334 75H335V74H334V75ZM297 76H334V74H297V76ZM333 75V112H335V75H333Z" fill="#2B2C2E"/>
<path d="M371 75H372V74H371V75ZM334 76H371V74H334V76ZM370 75V112H372V75H370Z" fill="#2B2C2E"/>
<path d="M408 75H409V74H408V75ZM371 76H408V74H371V76ZM407 75V112H409V75H407Z" fill="#2B2C2E"/>
<path d="M408 75V74H407V75H408ZM445 75H446V74H445V75ZM408 76H445V74H408V76ZM444 75V112H446V75H444ZM409 112V75H407V112H409Z" fill="#2B2C2E"/>
<path d="M482 75H483V74H482V75ZM445 76H482V74H445V76ZM481 75V112H483V75H481Z" fill="#2B2C2E"/>
<path d="M519 75H520V74H519V75ZM482 76H519V74H482V76ZM518 75V112H520V75H518Z" fill="#2B2C2E"/>
<path d="M556 75H557V74H556V75ZM519 76H556V74H519V76ZM555 75V112H557V75H555Z" fill="#2B2C2E"/>
<path d="M593 75H594V74H593V75ZM556 76H593V74H556V76ZM592 75V112H594V75H592Z" fill="#2B2C2E"/>
<path d="M630 75H631V74H630V75ZM593 76H630V74H593V76ZM629 75V112H631V75H629Z" fill="#2B2C2E"/>
<path d="M667 75H668V74H667V75ZM630 76H667V74H630V76ZM666 75V112H668V75H666Z" fill="#2B2C2E"/>
<path d="M704 75H705V74H704V75ZM667 76H704V74H667V76ZM703 75V112H705V75H703Z" fill="#2B2C2E"/>
<path d="M741 75H742V74H741V75ZM704 76H741V74H704V76ZM740 75V112H742V75H740Z" fill="#2B2C2E"/>
<path d="M778 75H779V74H778V75ZM741 76H778V74H741V76ZM777 75V112H779V75H777Z" fill="#2B2C2E"/>
<path d="M815 75H816V74H815V75ZM778 76H815V74H778V76ZM814 75V112H816V75H814Z" fill="#2B2C2E"/>
<path d="M1 112V111H0V112H1ZM38 112H39V111H38V112ZM1 113H38V111H1V113ZM37 112V149H39V112H37ZM2 149V112H0V149H2Z" fill="#2B2C2E"/>
<path d="M75 112H76V111H75V112ZM38 113H75V111H38V113ZM74 112V149H76V112H74Z" fill="#2B2C2E"/>
<path d="M112 112H113V111H112V112ZM75 113H112V111H75V113ZM111 112V149H113V112H111Z" fill="#2B2C2E"/>
<path d="M149 112H150V111H149V112ZM112 113H149V111H112V113ZM148 112V149H150V112H148Z" fill="#2B2C2E"/>
<path d="M186 112H187V111H186V112ZM149 113H186V111H149V113ZM185 112V149H187V112H185Z" fill="#2B2C2E"/>
<path d="M223 112H224V111H223V112ZM186 113H223V111H186V113ZM222 112V149H224V112H222Z" fill="#2B2C2E"/>
<path d="M260 112H261V111H260V112ZM223 113H260V111H223V113ZM259 112V149H261V112H259Z" fill="#2B2C2E"/>
<path d="M297 112H298V111H297V112ZM260 113H297V111H260V113ZM296 112V149H298V112H296Z" fill="#2B2C2E"/>
<path d="M334 112H335V111H334V112ZM297 113H334V111H297V113ZM333 112V149H335V112H333Z" fill="#2B2C2E"/>
<path d="M371 112H372V111H371V112ZM334 113H371V111H334V113ZM370 112V149H372V112H370Z" fill="#2B2C2E"/>
<path d="M408 112H409V111H408V112ZM371 113H408V111H371V113ZM407 112V149H409V112H407Z" fill="#2B2C2E"/>
<path d="M408 112V111H407V112H408ZM445 112H446V111H445V112ZM408 113H445V111H408V113ZM444 112V149H446V112H444ZM409 149V112H407V149H409Z" fill="#2B2C2E"/>
<path d="M482 112H483V111H482V112ZM445 113H482V111H445V113ZM481 112V149H483V112H481Z" fill="#2B2C2E"/>
<path d="M519 112H520V111H519V112ZM482 113H519V111H482V113ZM518 112V149H520V112H518Z" fill="#2B2C2E"/>
<path d="M556 112H557V111H556V112ZM519 113H556V111H519V113ZM555 112V149H557V112H555Z" fill="#2B2C2E"/>
<path d="M593 112H594V111H593V112ZM556 113H593V111H556V113ZM592 112V149H594V112H592Z" fill="#2B2C2E"/>
<path d="M630 112H631V111H630V112ZM593 113H630V111H593V113ZM629 112V149H631V112H629Z" fill="#2B2C2E"/>
<path d="M667 112H668V111H667V112ZM630 113H667V111H630V113ZM666 112V149H668V112H666Z" fill="#2B2C2E"/>
<path d="M704 112H705V111H704V112ZM667 113H704V111H667V113ZM703 112V149H705V112H703Z" fill="#2B2C2E"/>
<path d="M741 112H742V111H741V112ZM704 113H741V111H704V113ZM740 112V149H742V112H740Z" fill="#2B2C2E"/>
<path d="M778 112H779V111H778V112ZM741 113H778V111H741V113ZM777 112V149H779V112H777Z" fill="#2B2C2E"/>
<path d="M815 112H816V111H815V112ZM778 113H815V111H778V113ZM814 112V149H816V112H814Z" fill="#2B2C2E"/>
<path d="M1 149V148H0V149H1ZM38 149H39V148H38V149ZM1 150H38V148H1V150ZM37 149V186H39V149H37ZM2 186V149H0V186H2Z" fill="#2B2C2E"/>
<path d="M75 149H76V148H75V149ZM38 150H75V148H38V150ZM74 149V186H76V149H74Z" fill="#2B2C2E"/>
<path d="M112 149H113V148H112V149ZM75 150H112V148H75V150ZM111 149V186H113V149H111Z" fill="#2B2C2E"/>
<path d="M149 149H150V148H149V149ZM112 150H149V148H112V150ZM148 149V186H150V149H148Z" fill="#2B2C2E"/>
<path d="M186 149H187V148H186V149ZM149 150H186V148H149V150ZM185 149V186H187V149H185Z" fill="#2B2C2E"/>
<path d="M223 149H224V148H223V149ZM186 150H223V148H186V150ZM222 149V186H224V149H222Z" fill="#2B2C2E"/>
<path d="M260 149H261V148H260V149ZM223 150H260V148H223V150ZM259 149V186H261V149H259Z" fill="#2B2C2E"/>
<path d="M297 149H298V148H297V149ZM260 150H297V148H260V150ZM296 149V186H298V149H296Z" fill="#2B2C2E"/>
<path d="M334 149H335V148H334V149ZM297 150H334V148H297V150ZM333 149V186H335V149H333Z" fill="#2B2C2E"/>
<path d="M371 149H372V148H371V149ZM334 150H371V148H334V150ZM370 149V186H372V149H370Z" fill="#2B2C2E"/>
<path d="M408 149H409V148H408V149ZM371 150H408V148H371V150ZM407 149V186H409V149H407Z" fill="#2B2C2E"/>
<path d="M408 149V148H407V149H408ZM445 149H446V148H445V149ZM408 150H445V148H408V150ZM444 149V186H446V149H444ZM409 186V149H407V186H409Z" fill="#2B2C2E"/>
<path d="M482 149H483V148H482V149ZM445 150H482V148H445V150ZM481 149V186H483V149H481Z" fill="#2B2C2E"/>
<path d="M519 149H520V148H519V149ZM482 150H519V148H482V150ZM518 149V186H520V149H518Z" fill="#2B2C2E"/>
<path d="M556 149H557V148H556V149ZM519 150H556V148H519V150ZM555 149V186H557V149H555Z" fill="#2B2C2E"/>
<path d="M593 149H594V148H593V149ZM556 150H593V148H556V150ZM592 149V186H594V149H592Z" fill="#2B2C2E"/>
<path d="M630 149H631V148H630V149ZM593 150H630V148H593V150ZM629 149V186H631V149H629Z" fill="#2B2C2E"/>
<path d="M667 149H668V148H667V149ZM630 150H667V148H630V150ZM666 149V186H668V149H666Z" fill="#2B2C2E"/>
<path d="M704 149H705V148H704V149ZM667 150H704V148H667V150ZM703 149V186H705V149H703Z" fill="#2B2C2E"/>
<path d="M741 149H742V148H741V149ZM704 150H741V148H704V150ZM740 149V186H742V149H740Z" fill="#2B2C2E"/>
<path d="M778 149H779V148H778V149ZM741 150H778V148H741V150ZM777 149V186H779V149H777Z" fill="#2B2C2E"/>
<path d="M815 149H816V148H815V149ZM778 150H815V148H778V150ZM814 149V186H816V149H814Z" fill="#2B2C2E"/>
<path d="M1 186V185H0V186H1ZM38 186H39V185H38V186ZM1 187H38V185H1V187ZM37 186V223H39V186H37ZM2 223V186H0V223H2Z" fill="#2B2C2E"/>
<path d="M75 186H76V185H75V186ZM38 187H75V185H38V187ZM74 186V223H76V186H74Z" fill="#2B2C2E"/>
<path d="M112 186H113V185H112V186ZM75 187H112V185H75V187ZM111 186V223H113V186H111Z" fill="#2B2C2E"/>
<path d="M149 186H150V185H149V186ZM112 187H149V185H112V187ZM148 186V223H150V186H148Z" fill="#2B2C2E"/>
<path d="M186 186H187V185H186V186ZM149 187H186V185H149V187ZM185 186V223H187V186H185Z" fill="#2B2C2E"/>
<path d="M223 186H224V185H223V186ZM186 187H223V185H186V187ZM222 186V223H224V186H222Z" fill="#2B2C2E"/>
<path d="M260 186H261V185H260V186ZM223 187H260V185H223V187ZM259 186V223H261V186H259Z" fill="#2B2C2E"/>
<path d="M297 186H298V185H297V186ZM260 187H297V185H260V187ZM296 186V223H298V186H296Z" fill="#2B2C2E"/>
<path d="M334 186H335V185H334V186ZM297 187H334V185H297V187ZM333 186V223H335V186H333Z" fill="#2B2C2E"/>
<path d="M371 186H372V185H371V186ZM334 187H371V185H334V187ZM370 186V223H372V186H370Z" fill="#2B2C2E"/>
<path d="M408 186H409V185H408V186ZM371 187H408V185H371V187ZM407 186V223H409V186H407Z" fill="#2B2C2E"/>
<path d="M408 186V185H407V186H408ZM445 186H446V185H445V186ZM408 187H445V185H408V187ZM444 186V223H446V186H444ZM409 223V186H407V223H409Z" fill="#2B2C2E"/>
<path d="M482 186H483V185H482V186ZM445 187H482V185H445V187ZM481 186V223H483V186H481Z" fill="#2B2C2E"/>
<path d="M519 186H520V185H519V186ZM482 187H519V185H482V187ZM518 186V223H520V186H518Z" fill="#2B2C2E"/>
<path d="M556 186H557V185H556V186ZM519 187H556V185H519V187ZM555 186V223H557V186H555Z" fill="#2B2C2E"/>
<path d="M593 186H594V185H593V186ZM556 187H593V185H556V187ZM592 186V223H594V186H592Z" fill="#2B2C2E"/>
<path d="M630 186H631V185H630V186ZM593 187H630V185H593V187ZM629 186V223H631V186H629Z" fill="#2B2C2E"/>
<path d="M667 186H668V185H667V186ZM630 187H667V185H630V187ZM666 186V223H668V186H666Z" fill="#2B2C2E"/>
<path d="M704 186H705V185H704V186ZM667 187H704V185H667V187ZM703 186V223H705V186H703Z" fill="#2B2C2E"/>
<path d="M741 186H742V185H741V186ZM704 187H741V185H704V187ZM740 186V223H742V186H740Z" fill="#2B2C2E"/>
<path d="M778 186H779V185H778V186ZM741 187H778V185H741V187ZM777 186V223H779V186H777Z" fill="#2B2C2E"/>
<path d="M815 186H816V185H815V186ZM778 187H815V185H778V187ZM814 186V223H816V186H814Z" fill="#2B2C2E"/>
<path d="M1 223V222H0V223H1ZM38 223H39V222H38V223ZM1 224H38V222H1V224ZM37 223V260H39V223H37ZM2 260V223H0V260H2Z" fill="#2B2C2E"/>
<path d="M75 223H76V222H75V223ZM38 224H75V222H38V224ZM74 223V260H76V223H74Z" fill="#2B2C2E"/>
<path d="M112 223H113V222H112V223ZM75 224H112V222H75V224ZM111 223V260H113V223H111Z" fill="#2B2C2E"/>
<path d="M149 223H150V222H149V223ZM112 224H149V222H112V224ZM148 223V260H150V223H148Z" fill="#2B2C2E"/>
<path d="M186 223H187V222H186V223ZM149 224H186V222H149V224ZM185 223V260H187V223H185Z" fill="#2B2C2E"/>
<path d="M223 223H224V222H223V223ZM186 224H223V222H186V224ZM222 223V260H224V223H222Z" fill="#2B2C2E"/>
<path d="M260 223H261V222H260V223ZM223 224H260V222H223V224ZM259 223V260H261V223H259Z" fill="#2B2C2E"/>
<path d="M297 223H298V222H297V223ZM260 224H297V222H260V224ZM296 223V260H298V223H296Z" fill="#2B2C2E"/>
<path d="M334 223H335V222H334V223ZM297 224H334V222H297V224ZM333 223V260H335V223H333Z" fill="#2B2C2E"/>
<path d="M371 223H372V222H371V223ZM334 224H371V222H334V224ZM370 223V260H372V223H370Z" fill="#2B2C2E"/>
<path d="M408 223H409V222H408V223ZM371 224H408V222H371V224ZM407 223V260H409V223H407Z" fill="#2B2C2E"/>
<path d="M408 223V222H407V223H408ZM445 223H446V222H445V223ZM408 224H445V222H408V224ZM444 223V260H446V223H444ZM409 260V223H407V260H409Z" fill="#2B2C2E"/>
<path d="M482 223H483V222H482V223ZM445 224H482V222H445V224ZM481 223V260H483V223H481Z" fill="#2B2C2E"/>
<path d="M519 223H520V222H519V223ZM482 224H519V222H482V224ZM518 223V260H520V223H518Z" fill="#2B2C2E"/>
<path d="M556 223H557V222H556V223ZM519 224H556V222H519V224ZM555 223V260H557V223H555Z" fill="#2B2C2E"/>
<path d="M593 223H594V222H593V223ZM556 224H593V222H556V224ZM592 223V260H594V223H592Z" fill="#2B2C2E"/>
<path d="M630 223H631V222H630V223ZM593 224H630V222H593V224ZM629 223V260H631V223H629Z" fill="#2B2C2E"/>
<path d="M667 223H668V222H667V223ZM630 224H667V222H630V224ZM666 223V260H668V223H666Z" fill="#2B2C2E"/>
<path d="M704 223H705V222H704V223ZM667 224H704V222H667V224ZM703 223V260H705V223H703Z" fill="#2B2C2E"/>
<path d="M741 223H742V222H741V223ZM704 224H741V222H704V224ZM740 223V260H742V223H740Z" fill="#2B2C2E"/>
<path d="M778 223H779V222H778V223ZM741 224H778V222H741V224ZM777 223V260H779V223H777Z" fill="#2B2C2E"/>
<path d="M815 223H816V222H815V223ZM778 224H815V222H778V224ZM814 223V260H816V223H814Z" fill="#2B2C2E"/>
<path d="M1 260V259H0V260H1ZM38 260H39V259H38V260ZM1 261H38V259H1V261ZM37 260V297H39V260H37ZM2 297V260H0V297H2Z" fill="#2B2C2E"/>
<path d="M75 260H76V259H75V260ZM38 261H75V259H38V261ZM74 260V297H76V260H74Z" fill="#2B2C2E"/>
<path d="M112 260H113V259H112V260ZM75 261H112V259H75V261ZM111 260V297H113V260H111Z" fill="#2B2C2E"/>
<path d="M149 260H150V259H149V260ZM112 261H149V259H112V261ZM148 260V297H150V260H148Z" fill="#2B2C2E"/>
<path d="M186 260H187V259H186V260ZM149 261H186V259H149V261ZM185 260V297H187V260H185Z" fill="#2B2C2E"/>
<path d="M223 260H224V259H223V260ZM186 261H223V259H186V261ZM222 260V297H224V260H222Z" fill="#2B2C2E"/>
<path d="M260 260H261V259H260V260ZM223 261H260V259H223V261ZM259 260V297H261V260H259Z" fill="#2B2C2E"/>
<path d="M297 260H298V259H297V260ZM260 261H297V259H260V261ZM296 260V297H298V260H296Z" fill="#2B2C2E"/>
<path d="M334 260H335V259H334V260ZM297 261H334V259H297V261ZM333 260V297H335V260H333Z" fill="#2B2C2E"/>
<path d="M371 260H372V259H371V260ZM334 261H371V259H334V261ZM370 260V297H372V260H370Z" fill="#2B2C2E"/>
<path d="M408 260H409V259H408V260ZM371 261H408V259H371V261ZM407 260V297H409V260H407Z" fill="#2B2C2E"/>
<path d="M408 260V259H407V260H408ZM445 260H446V259H445V260ZM408 261H445V259H408V261ZM444 260V297H446V260H444ZM409 297V260H407V297H409Z" fill="#2B2C2E"/>
<path d="M482 260H483V259H482V260ZM445 261H482V259H445V261ZM481 260V297H483V260H481Z" fill="#2B2C2E"/>
<path d="M519 260H520V259H519V260ZM482 261H519V259H482V261ZM518 260V297H520V260H518Z" fill="#2B2C2E"/>
<path d="M556 260H557V259H556V260ZM519 261H556V259H519V261ZM555 260V297H557V260H555Z" fill="#2B2C2E"/>
<path d="M593 260H594V259H593V260ZM556 261H593V259H556V261ZM592 260V297H594V260H592Z" fill="#2B2C2E"/>
<path d="M630 260H631V259H630V260ZM593 261H630V259H593V261ZM629 260V297H631V260H629Z" fill="#2B2C2E"/>
<path d="M667 260H668V259H667V260ZM630 261H667V259H630V261ZM666 260V297H668V260H666Z" fill="#2B2C2E"/>
<path d="M704 260H705V259H704V260ZM667 261H704V259H667V261ZM703 260V297H705V260H703Z" fill="#2B2C2E"/>
<path d="M741 260H742V259H741V260ZM704 261H741V259H704V261ZM740 260V297H742V260H740Z" fill="#2B2C2E"/>
<path d="M778 260H779V259H778V260ZM741 261H778V259H741V261ZM777 260V297H779V260H777Z" fill="#2B2C2E"/>
<path d="M815 260H816V259H815V260ZM778 261H815V259H778V261ZM814 260V297H816V260H814Z" fill="#2B2C2E"/>
<path d="M1 297V296H0V297H1ZM38 297H39V296H38V297ZM1 298H38V296H1V298ZM37 297V334H39V297H37ZM2 334V297H0V334H2Z" fill="#2B2C2E"/>
<path d="M75 297H76V296H75V297ZM38 298H75V296H38V298ZM74 297V334H76V297H74Z" fill="#2B2C2E"/>
<path d="M112 297H113V296H112V297ZM75 298H112V296H75V298ZM111 297V334H113V297H111Z" fill="#2B2C2E"/>
<path d="M149 297H150V296H149V297ZM112 298H149V296H112V298ZM148 297V334H150V297H148Z" fill="#2B2C2E"/>
<path d="M186 297H187V296H186V297ZM149 298H186V296H149V298ZM185 297V334H187V297H185Z" fill="#2B2C2E"/>
<path d="M223 297H224V296H223V297ZM186 298H223V296H186V298ZM222 297V334H224V297H222Z" fill="#2B2C2E"/>
<path d="M260 297H261V296H260V297ZM223 298H260V296H223V298ZM259 297V334H261V297H259Z" fill="#2B2C2E"/>
<path d="M297 297H298V296H297V297ZM260 298H297V296H260V298ZM296 297V334H298V297H296Z" fill="#2B2C2E"/>
<path d="M334 297H335V296H334V297ZM297 298H334V296H297V298ZM333 297V334H335V297H333Z" fill="#2B2C2E"/>
<path d="M371 297H372V296H371V297ZM334 298H371V296H334V298ZM370 297V334H372V297H370Z" fill="#2B2C2E"/>
<path d="M408 297H409V296H408V297ZM371 298H408V296H371V298ZM407 297V334H409V297H407Z" fill="#2B2C2E"/>
<path d="M408 297V296H407V297H408ZM445 297H446V296H445V297ZM408 298H445V296H408V298ZM444 297V334H446V297H444ZM409 334V297H407V334H409Z" fill="#2B2C2E"/>
<path d="M482 297H483V296H482V297ZM445 298H482V296H445V298ZM481 297V334H483V297H481Z" fill="#2B2C2E"/>
<path d="M519 297H520V296H519V297ZM482 298H519V296H482V298ZM518 297V334H520V297H518Z" fill="#2B2C2E"/>
<path d="M556 297H557V296H556V297ZM519 298H556V296H519V298ZM555 297V334H557V297H555Z" fill="#2B2C2E"/>
<path d="M593 297H594V296H593V297ZM556 298H593V296H556V298ZM592 297V334H594V297H592Z" fill="#2B2C2E"/>
<path d="M630 297H631V296H630V297ZM593 298H630V296H593V298ZM629 297V334H631V297H629Z" fill="#2B2C2E"/>
<path d="M667 297H668V296H667V297ZM630 298H667V296H630V298ZM666 297V334H668V297H666Z" fill="#2B2C2E"/>
<path d="M704 297H705V296H704V297ZM667 298H704V296H667V298ZM703 297V334H705V297H703Z" fill="#2B2C2E"/>
<path d="M741 297H742V296H741V297ZM704 298H741V296H704V298ZM740 297V334H742V297H740Z" fill="#2B2C2E"/>
<path d="M778 297H779V296H778V297ZM741 298H778V296H741V298ZM777 297V334H779V297H777Z" fill="#2B2C2E"/>
<path d="M815 297H816V296H815V297ZM778 298H815V296H778V298ZM814 297V334H816V297H814Z" fill="#2B2C2E"/>
<path d="M1 334V333H0V334H1ZM38 334H39V333H38V334ZM1 335H38V333H1V335ZM37 334V371H39V334H37ZM2 371V334H0V371H2Z" fill="#2B2C2E"/>
<path d="M75 334H76V333H75V334ZM38 335H75V333H38V335ZM74 334V371H76V334H74Z" fill="#2B2C2E"/>
<path d="M112 334H113V333H112V334ZM75 335H112V333H75V335ZM111 334V371H113V334H111Z" fill="#2B2C2E"/>
<path d="M149 334H150V333H149V334ZM112 335H149V333H112V335ZM148 334V371H150V334H148Z" fill="#2B2C2E"/>
<path d="M186 334H187V333H186V334ZM149 335H186V333H149V335ZM185 334V371H187V334H185Z" fill="#2B2C2E"/>
<path d="M223 334H224V333H223V334ZM186 335H223V333H186V335ZM222 334V371H224V334H222Z" fill="#2B2C2E"/>
<path d="M260 334H261V333H260V334ZM223 335H260V333H223V335ZM259 334V371H261V334H259Z" fill="#2B2C2E"/>
<path d="M297 334H298V333H297V334ZM260 335H297V333H260V335ZM296 334V371H298V334H296Z" fill="#2B2C2E"/>
<path d="M334 334H335V333H334V334ZM297 335H334V333H297V335ZM333 334V371H335V334H333Z" fill="#2B2C2E"/>
<path d="M371 334H372V333H371V334ZM334 335H371V333H334V335ZM370 334V371H372V334H370Z" fill="#2B2C2E"/>
<path d="M408 334H409V333H408V334ZM371 335H408V333H371V335ZM407 334V371H409V334H407Z" fill="#2B2C2E"/>
<path d="M408 334V333H407V334H408ZM445 334H446V333H445V334ZM408 335H445V333H408V335ZM444 334V371H446V334H444ZM409 371V334H407V371H409Z" fill="#2B2C2E"/>
<path d="M482 334H483V333H482V334ZM445 335H482V333H445V335ZM481 334V371H483V334H481Z" fill="#2B2C2E"/>
<path d="M519 334H520V333H519V334ZM482 335H519V333H482V335ZM518 334V371H520V334H518Z" fill="#2B2C2E"/>
<path d="M556 334H557V333H556V334ZM519 335H556V333H519V335ZM555 334V371H557V334H555Z" fill="#2B2C2E"/>
<path d="M593 334H594V333H593V334ZM556 335H593V333H556V335ZM592 334V371H594V334H592Z" fill="#2B2C2E"/>
<path d="M630 334H631V333H630V334ZM593 335H630V333H593V335ZM629 334V371H631V334H629Z" fill="#2B2C2E"/>
<path d="M667 334H668V333H667V334ZM630 335H667V333H630V335ZM666 334V371H668V334H666Z" fill="#2B2C2E"/>
<path d="M704 334H705V333H704V334ZM667 335H704V333H667V335ZM703 334V371H705V334H703Z" fill="#2B2C2E"/>
<path d="M741 334H742V333H741V334ZM704 335H741V333H704V335ZM740 334V371H742V334H740Z" fill="#2B2C2E"/>
<path d="M778 334H779V333H778V334ZM741 335H778V333H741V335ZM777 334V371H779V334H777Z" fill="#2B2C2E"/>
<path d="M815 334H816V333H815V334ZM778 335H815V333H778V335ZM814 334V371H816V334H814Z" fill="#2B2C2E"/>
<path d="M1 371V370H0V371H1ZM38 371H39V370H38V371ZM1 372H38V370H1V372ZM37 371V408H39V371H37ZM2 408V371H0V408H2Z" fill="#2B2C2E"/>
<path d="M75 371H76V370H75V371ZM38 372H75V370H38V372ZM74 371V408H76V371H74Z" fill="#2B2C2E"/>
<path d="M112 371H113V370H112V371ZM75 372H112V370H75V372ZM111 371V408H113V371H111Z" fill="#2B2C2E"/>
<path d="M149 371H150V370H149V371ZM112 372H149V370H112V372ZM148 371V408H150V371H148Z" fill="#2B2C2E"/>
<path d="M186 371H187V370H186V371ZM149 372H186V370H149V372ZM185 371V408H187V371H185Z" fill="#2B2C2E"/>
<path d="M223 371H224V370H223V371ZM186 372H223V370H186V372ZM222 371V408H224V371H222Z" fill="#2B2C2E"/>
<path d="M260 371H261V370H260V371ZM223 372H260V370H223V372ZM259 371V408H261V371H259Z" fill="#2B2C2E"/>
<path d="M297 371H298V370H297V371ZM260 372H297V370H260V372ZM296 371V408H298V371H296Z" fill="#2B2C2E"/>
<path d="M334 371H335V370H334V371ZM297 372H334V370H297V372ZM333 371V408H335V371H333Z" fill="#2B2C2E"/>
<path d="M371 371H372V370H371V371ZM334 372H371V370H334V372ZM370 371V408H372V371H370Z" fill="#2B2C2E"/>
<path d="M408 371H409V370H408V371ZM371 372H408V370H371V372ZM407 371V408H409V371H407Z" fill="#2B2C2E"/>
<path d="M408 371V370H407V371H408ZM445 371H446V370H445V371ZM408 372H445V370H408V372ZM444 371V408H446V371H444ZM409 408V371H407V408H409Z" fill="#2B2C2E"/>
<path d="M482 371H483V370H482V371ZM445 372H482V370H445V372ZM481 371V408H483V371H481Z" fill="#2B2C2E"/>
<path d="M519 371H520V370H519V371ZM482 372H519V370H482V372ZM518 371V408H520V371H518Z" fill="#2B2C2E"/>
<path d="M556 371H557V370H556V371ZM519 372H556V370H519V372ZM555 371V408H557V371H555Z" fill="#2B2C2E"/>
<path d="M593 371H594V370H593V371ZM556 372H593V370H556V372ZM592 371V408H594V371H592Z" fill="#2B2C2E"/>
<path d="M630 371H631V370H630V371ZM593 372H630V370H593V372ZM629 371V408H631V371H629Z" fill="#2B2C2E"/>
<path d="M667 371H668V370H667V371ZM630 372H667V370H630V372ZM666 371V408H668V371H666Z" fill="#2B2C2E"/>
<path d="M704 371H705V370H704V371ZM667 372H704V370H667V372ZM703 371V408H705V371H703Z" fill="#2B2C2E"/>
<path d="M741 371H742V370H741V371ZM704 372H741V370H704V372ZM740 371V408H742V371H740Z" fill="#2B2C2E"/>
<path d="M778 371H779V370H778V371ZM741 372H778V370H741V372ZM777 371V408H779V371H777Z" fill="#2B2C2E"/>
<path d="M815 371H816V370H815V371ZM778 372H815V370H778V372ZM814 371V408H816V371H814Z" fill="#2B2C2E"/>
<path d="M1 408V407H0V408H1ZM38 408H39V407H38V408ZM1 409H38V407H1V409ZM37 408V445H39V408H37ZM2 445V408H0V445H2Z" fill="#2B2C2E"/>
<path d="M75 408H76V407H75V408ZM38 409H75V407H38V409ZM74 408V445H76V408H74Z" fill="#2B2C2E"/>
<path d="M112 408H113V407H112V408ZM75 409H112V407H75V409ZM111 408V445H113V408H111Z" fill="#2B2C2E"/>
<path d="M149 408H150V407H149V408ZM112 409H149V407H112V409ZM148 408V445H150V408H148Z" fill="#2B2C2E"/>
<path d="M186 408H187V407H186V408ZM149 409H186V407H149V409ZM185 408V445H187V408H185Z" fill="#2B2C2E"/>
<path d="M223 408H224V407H223V408ZM186 409H223V407H186V409ZM222 408V445H224V408H222Z" fill="#2B2C2E"/>
<path d="M260 408H261V407H260V408ZM223 409H260V407H223V409ZM259 408V445H261V408H259Z" fill="#2B2C2E"/>
<path d="M297 408H298V407H297V408ZM260 409H297V407H260V409ZM296 408V445H298V408H296Z" fill="#2B2C2E"/>
<path d="M334 408H335V407H334V408ZM297 409H334V407H297V409ZM333 408V445H335V408H333Z" fill="#2B2C2E"/>
<path d="M371 408H372V407H371V408ZM334 409H371V407H334V409ZM370 408V445H372V408H370Z" fill="#2B2C2E"/>
<path d="M408 408H409V407H408V408ZM371 409H408V407H371V409ZM407 408V445H409V408H407Z" fill="#2B2C2E"/>
<path d="M408 408V407H407V408H408ZM445 408H446V407H445V408ZM408 409H445V407H408V409ZM444 408V445H446V408H444ZM409 445V408H407V445H409Z" fill="#2B2C2E"/>
<path d="M482 408H483V407H482V408ZM445 409H482V407H445V409ZM481 408V445H483V408H481Z" fill="#2B2C2E"/>
<path d="M519 408H520V407H519V408ZM482 409H519V407H482V409ZM518 408V445H520V408H518Z" fill="#2B2C2E"/>
<path d="M556 408H557V407H556V408ZM519 409H556V407H519V409ZM555 408V445H557V408H555Z" fill="#2B2C2E"/>
<path d="M593 408H594V407H593V408ZM556 409H593V407H556V409ZM592 408V445H594V408H592Z" fill="#2B2C2E"/>
<path d="M630 408H631V407H630V408ZM593 409H630V407H593V409ZM629 408V445H631V408H629Z" fill="#2B2C2E"/>
<path d="M667 408H668V407H667V408ZM630 409H667V407H630V409ZM666 408V445H668V408H666Z" fill="#2B2C2E"/>
<path d="M704 408H705V407H704V408ZM667 409H704V407H667V409ZM703 408V445H705V408H703Z" fill="#2B2C2E"/>
<path d="M741 408H742V407H741V408ZM704 409H741V407H704V409ZM740 408V445H742V408H740Z" fill="#2B2C2E"/>
<path d="M778 408H779V407H778V408ZM741 409H778V407H741V409ZM777 408V445H779V408H777Z" fill="#2B2C2E"/>
<path d="M815 408H816V407H815V408ZM778 409H815V407H778V409ZM814 408V445H816V408H814Z" fill="#2B2C2E"/>
<path d="M1 445V444H0V445H1ZM38 445H39V444H38V445ZM1 446H38V444H1V446ZM37 445V482H39V445H37ZM2 482V445H0V482H2Z" fill="#2B2C2E"/>
<path d="M75 445H76V444H75V445ZM38 446H75V444H38V446ZM74 445V482H76V445H74Z" fill="#2B2C2E"/>
<path d="M112 445H113V444H112V445ZM75 446H112V444H75V446ZM111 445V482H113V445H111Z" fill="#2B2C2E"/>
<path d="M149 445H150V444H149V445ZM112 446H149V444H112V446ZM148 445V482H150V445H148Z" fill="#2B2C2E"/>
<path d="M186 445H187V444H186V445ZM149 446H186V444H149V446ZM185 445V482H187V445H185Z" fill="#2B2C2E"/>
<path d="M223 445H224V444H223V445ZM186 446H223V444H186V446ZM222 445V482H224V445H222Z" fill="#2B2C2E"/>
<path d="M260 445H261V444H260V445ZM223 446H260V444H223V446ZM259 445V482H261V445H259Z" fill="#2B2C2E"/>
<path d="M297 445H298V444H297V445ZM260 446H297V444H260V446ZM296 445V482H298V445H296Z" fill="#2B2C2E"/>
<path d="M334 445H335V444H334V445ZM297 446H334V444H297V446ZM333 445V482H335V445H333Z" fill="#2B2C2E"/>
<path d="M371 445H372V444H371V445ZM334 446H371V444H334V446ZM370 445V482H372V445H370Z" fill="#2B2C2E"/>
<path d="M408 445H409V444H408V445ZM371 446H408V444H371V446ZM407 445V482H409V445H407Z" fill="#2B2C2E"/>
<path d="M408 445V444H407V445H408ZM445 445H446V444H445V445ZM408 446H445V444H408V446ZM444 445V482H446V445H444ZM409 482V445H407V482H409Z" fill="#2B2C2E"/>
<path d="M482 445H483V444H482V445ZM445 446H482V444H445V446ZM481 445V482H483V445H481Z" fill="#2B2C2E"/>
<path d="M519 445H520V444H519V445ZM482 446H519V444H482V446ZM518 445V482H520V445H518Z" fill="#2B2C2E"/>
<path d="M556 445H557V444H556V445ZM519 446H556V444H519V446ZM555 445V482H557V445H555Z" fill="#2B2C2E"/>
<path d="M593 445H594V444H593V445ZM556 446H593V444H556V446ZM592 445V482H594V445H592Z" fill="#2B2C2E"/>
<path d="M630 445H631V444H630V445ZM593 446H630V444H593V446ZM629 445V482H631V445H629Z" fill="#2B2C2E"/>
<path d="M667 445H668V444H667V445ZM630 446H667V444H630V446ZM666 445V482H668V445H666Z" fill="#2B2C2E"/>
<path d="M704 445H705V444H704V445ZM667 446H704V444H667V446ZM703 445V482H705V445H703Z" fill="#2B2C2E"/>
<path d="M741 445H742V444H741V445ZM704 446H741V444H704V446ZM740 445V482H742V445H740Z" fill="#2B2C2E"/>
<path d="M778 445H779V444H778V445ZM741 446H778V444H741V446ZM777 445V482H779V445H777Z" fill="#2B2C2E"/>
<path d="M815 445H816V444H815V445ZM778 446H815V444H778V446ZM814 445V482H816V445H814Z" fill="#2B2C2E"/>
<path d="M1 482V481H0V482H1ZM38 482H39V481H38V482ZM1 483H38V481H1V483ZM37 482V519H39V482H37ZM2 519V482H0V519H2Z" fill="#2B2C2E"/>
<path d="M75 482H76V481H75V482ZM38 483H75V481H38V483ZM74 482V519H76V482H74Z" fill="#2B2C2E"/>
<path d="M112 482H113V481H112V482ZM75 483H112V481H75V483ZM111 482V519H113V482H111Z" fill="#2B2C2E"/>
<path d="M149 482H150V481H149V482ZM112 483H149V481H112V483ZM148 482V519H150V482H148Z" fill="#2B2C2E"/>
<path d="M186 482H187V481H186V482ZM149 483H186V481H149V483ZM185 482V519H187V482H185Z" fill="#2B2C2E"/>
<path d="M223 482H224V481H223V482ZM186 483H223V481H186V483ZM222 482V519H224V482H222Z" fill="#2B2C2E"/>
<path d="M260 482H261V481H260V482ZM223 483H260V481H223V483ZM259 482V519H261V482H259Z" fill="#2B2C2E"/>
<path d="M297 482H298V481H297V482ZM260 483H297V481H260V483ZM296 482V519H298V482H296Z" fill="#2B2C2E"/>
<path d="M334 482H335V481H334V482ZM297 483H334V481H297V483ZM333 482V519H335V482H333Z" fill="#2B2C2E"/>
<path d="M371 482H372V481H371V482ZM334 483H371V481H334V483ZM370 482V519H372V482H370Z" fill="#2B2C2E"/>
<path d="M408 482H409V481H408V482ZM371 483H408V481H371V483ZM407 482V519H409V482H407Z" fill="#2B2C2E"/>
<path d="M408 482V481H407V482H408ZM445 482H446V481H445V482ZM408 483H445V481H408V483ZM444 482V519H446V482H444ZM409 519V482H407V519H409Z" fill="#2B2C2E"/>
<path d="M482 482H483V481H482V482ZM445 483H482V481H445V483ZM481 482V519H483V482H481Z" fill="#2B2C2E"/>
<path d="M519 482H520V481H519V482ZM482 483H519V481H482V483ZM518 482V519H520V482H518Z" fill="#2B2C2E"/>
<path d="M556 482H557V481H556V482ZM519 483H556V481H519V483ZM555 482V519H557V482H555Z" fill="#2B2C2E"/>
<path d="M593 482H594V481H593V482ZM556 483H593V481H556V483ZM592 482V519H594V482H592Z" fill="#2B2C2E"/>
<path d="M630 482H631V481H630V482ZM593 483H630V481H593V483ZM629 482V519H631V482H629Z" fill="#2B2C2E"/>
<path d="M667 482H668V481H667V482ZM630 483H667V481H630V483ZM666 482V519H668V482H666Z" fill="#2B2C2E"/>
<path d="M704 482H705V481H704V482ZM667 483H704V481H667V483ZM703 482V519H705V482H703Z" fill="#2B2C2E"/>
<path d="M741 482H742V481H741V482ZM704 483H741V481H704V483ZM740 482V519H742V482H740Z" fill="#2B2C2E"/>
<path d="M778 482H779V481H778V482ZM741 483H778V481H741V483ZM777 482V519H779V482H777Z" fill="#2B2C2E"/>
<path d="M815 482H816V481H815V482ZM778 483H815V481H778V483ZM814 482V519H816V482H814Z" fill="#2B2C2E"/>
<path d="M1 519V518H0V519H1ZM38 519H39V518H38V519ZM1 520H38V518H1V520ZM37 519V556H39V519H37ZM2 556V519H0V556H2Z" fill="#2B2C2E"/>
<path d="M75 519H76V518H75V519ZM38 520H75V518H38V520ZM74 519V556H76V519H74Z" fill="#2B2C2E"/>
<path d="M112 519H113V518H112V519ZM75 520H112V518H75V520ZM111 519V556H113V519H111Z" fill="#2B2C2E"/>
<path d="M149 519H150V518H149V519ZM112 520H149V518H112V520ZM148 519V556H150V519H148Z" fill="#2B2C2E"/>
<path d="M186 519H187V518H186V519ZM149 520H186V518H149V520ZM185 519V556H187V519H185Z" fill="#2B2C2E"/>
<path d="M223 519H224V518H223V519ZM186 520H223V518H186V520ZM222 519V556H224V519H222Z" fill="#2B2C2E"/>
<path d="M260 519H261V518H260V519ZM223 520H260V518H223V520ZM259 519V556H261V519H259Z" fill="#2B2C2E"/>
<path d="M297 519H298V518H297V519ZM260 520H297V518H260V520ZM296 519V556H298V519H296Z" fill="#2B2C2E"/>
<path d="M334 519H335V518H334V519ZM297 520H334V518H297V520ZM333 519V556H335V519H333Z" fill="#2B2C2E"/>
<path d="M371 519H372V518H371V519ZM334 520H371V518H334V520ZM370 519V556H372V519H370Z" fill="#2B2C2E"/>
<path d="M408 519H409V518H408V519ZM371 520H408V518H371V520ZM407 519V556H409V519H407Z" fill="#2B2C2E"/>
<path d="M408 519V518H407V519H408ZM445 519H446V518H445V519ZM408 520H445V518H408V520ZM444 519V556H446V519H444ZM409 556V519H407V556H409Z" fill="#2B2C2E"/>
<path d="M482 519H483V518H482V519ZM445 520H482V518H445V520ZM481 519V556H483V519H481Z" fill="#2B2C2E"/>
<path d="M519 519H520V518H519V519ZM482 520H519V518H482V520ZM518 519V556H520V519H518Z" fill="#2B2C2E"/>
<path d="M556 519H557V518H556V519ZM519 520H556V518H519V520ZM555 519V556H557V519H555Z" fill="#2B2C2E"/>
<path d="M593 519H594V518H593V519ZM556 520H593V518H556V520ZM592 519V556H594V519H592Z" fill="#2B2C2E"/>
<path d="M630 519H631V518H630V519ZM593 520H630V518H593V520ZM629 519V556H631V519H629Z" fill="#2B2C2E"/>
<path d="M667 519H668V518H667V519ZM630 520H667V518H630V520ZM666 519V556H668V519H666Z" fill="#2B2C2E"/>
<path d="M704 519H705V518H704V519ZM667 520H704V518H667V520ZM703 519V556H705V519H703Z" fill="#2B2C2E"/>
<path d="M741 519H742V518H741V519ZM704 520H741V518H704V520ZM740 519V556H742V519H740Z" fill="#2B2C2E"/>
<path d="M778 519H779V518H778V519ZM741 520H778V518H741V520ZM777 519V556H779V519H777Z" fill="#2B2C2E"/>
<path d="M815 519H816V518H815V519ZM778 520H815V518H778V520ZM814 519V556H816V519H814Z" fill="#2B2C2E"/>
<path d="M1 556V555H0V556H1ZM38 556H39V555H38V556ZM1 557H38V555H1V557ZM37 556V593H39V556H37ZM2 593V556H0V593H2Z" fill="#2B2C2E"/>
<path d="M75 556H76V555H75V556ZM38 557H75V555H38V557ZM74 556V593H76V556H74Z" fill="#2B2C2E"/>
<path d="M112 556H113V555H112V556ZM75 557H112V555H75V557ZM111 556V593H113V556H111Z" fill="#2B2C2E"/>
<path d="M149 556H150V555H149V556ZM112 557H149V555H112V557ZM148 556V593H150V556H148Z" fill="#2B2C2E"/>
<path d="M186 556H187V555H186V556ZM149 557H186V555H149V557ZM185 556V593H187V556H185Z" fill="#2B2C2E"/>
<path d="M223 556H224V555H223V556ZM186 557H223V555H186V557ZM222 556V593H224V556H222Z" fill="#2B2C2E"/>
<path d="M260 556H261V555H260V556ZM223 557H260V555H223V557ZM259 556V593H261V556H259Z" fill="#2B2C2E"/>
<path d="M297 556H298V555H297V556ZM260 557H297V555H260V557ZM296 556V593H298V556H296Z" fill="#2B2C2E"/>
<path d="M334 556H335V555H334V556ZM297 557H334V555H297V557ZM333 556V593H335V556H333Z" fill="#2B2C2E"/>
<path d="M371 556H372V555H371V556ZM334 557H371V555H334V557ZM370 556V593H372V556H370Z" fill="#2B2C2E"/>
<path d="M408 556H409V555H408V556ZM371 557H408V555H371V557ZM407 556V593H409V556H407Z" fill="#2B2C2E"/>
<path d="M408 556V555H407V556H408ZM445 556H446V555H445V556ZM408 557H445V555H408V557ZM444 556V593H446V556H444ZM409 593V556H407V593H409Z" fill="#2B2C2E"/>
<path d="M482 556H483V555H482V556ZM445 557H482V555H445V557ZM481 556V593H483V556H481Z" fill="#2B2C2E"/>
<path d="M519 556H520V555H519V556ZM482 557H519V555H482V557ZM518 556V593H520V556H518Z" fill="#2B2C2E"/>
<path d="M556 556H557V555H556V556ZM519 557H556V555H519V557ZM555 556V593H557V556H555Z" fill="#2B2C2E"/>
<path d="M593 556H594V555H593V556ZM556 557H593V555H556V557ZM592 556V593H594V556H592Z" fill="#2B2C2E"/>
<path d="M630 556H631V555H630V556ZM593 557H630V555H593V557ZM629 556V593H631V556H629Z" fill="#2B2C2E"/>
<path d="M667 556H668V555H667V556ZM630 557H667V555H630V557ZM666 556V593H668V556H666Z" fill="#2B2C2E"/>
<path d="M704 556H705V555H704V556ZM667 557H704V555H667V557ZM703 556V593H705V556H703Z" fill="#2B2C2E"/>
<path d="M741 556H742V555H741V556ZM704 557H741V555H704V557ZM740 556V593H742V556H740Z" fill="#2B2C2E"/>
<path d="M778 556H779V555H778V556ZM741 557H778V555H741V557ZM777 556V593H779V556H777Z" fill="#2B2C2E"/>
<path d="M815 556H816V555H815V556ZM778 557H815V555H778V557ZM814 556V593H816V556H814Z" fill="#2B2C2E"/>
<path d="M1 593V592H0V593H1ZM38 593H39V592H38V593ZM1 594H38V592H1V594ZM37 593V630H39V593H37ZM2 630V593H0V630H2Z" fill="#2B2C2E"/>
<path d="M75 593H76V592H75V593ZM38 594H75V592H38V594ZM74 593V630H76V593H74Z" fill="#2B2C2E"/>
<path d="M112 593H113V592H112V593ZM75 594H112V592H75V594ZM111 593V630H113V593H111Z" fill="#2B2C2E"/>
<path d="M149 593H150V592H149V593ZM112 594H149V592H112V594ZM148 593V630H150V593H148Z" fill="#2B2C2E"/>
<path d="M186 593H187V592H186V593ZM149 594H186V592H149V594ZM185 593V630H187V593H185Z" fill="#2B2C2E"/>
<path d="M223 593H224V592H223V593ZM186 594H223V592H186V594ZM222 593V630H224V593H222Z" fill="#2B2C2E"/>
<path d="M260 593H261V592H260V593ZM223 594H260V592H223V594ZM259 593V630H261V593H259Z" fill="#2B2C2E"/>
<path d="M297 593H298V592H297V593ZM260 594H297V592H260V594ZM296 593V630H298V593H296Z" fill="#2B2C2E"/>
<path d="M334 593H335V592H334V593ZM297 594H334V592H297V594ZM333 593V630H335V593H333Z" fill="#2B2C2E"/>
<path d="M371 593H372V592H371V593ZM334 594H371V592H334V594ZM370 593V630H372V593H370Z" fill="#2B2C2E"/>
<path d="M408 593H409V592H408V593ZM371 594H408V592H371V594ZM407 593V630H409V593H407Z" fill="#2B2C2E"/>
<path d="M408 593V592H407V593H408ZM445 593H446V592H445V593ZM408 594H445V592H408V594ZM444 593V630H446V593H444ZM409 630V593H407V630H409Z" fill="#2B2C2E"/>
<path d="M482 593H483V592H482V593ZM445 594H482V592H445V594ZM481 593V630H483V593H481Z" fill="#2B2C2E"/>
<path d="M519 593H520V592H519V593ZM482 594H519V592H482V594ZM518 593V630H520V593H518Z" fill="#2B2C2E"/>
<path d="M556 593H557V592H556V593ZM519 594H556V592H519V594ZM555 593V630H557V593H555Z" fill="#2B2C2E"/>
<path d="M593 593H594V592H593V593ZM556 594H593V592H556V594ZM592 593V630H594V593H592Z" fill="#2B2C2E"/>
<path d="M630 593H631V592H630V593ZM593 594H630V592H593V594ZM629 593V630H631V593H629Z" fill="#2B2C2E"/>
<path d="M667 593H668V592H667V593ZM630 594H667V592H630V594ZM666 593V630H668V593H666Z" fill="#2B2C2E"/>
<path d="M704 593H705V592H704V593ZM667 594H704V592H667V594ZM703 593V630H705V593H703Z" fill="#2B2C2E"/>
<path d="M741 593H742V592H741V593ZM704 594H741V592H704V594ZM740 593V630H742V593H740Z" fill="#2B2C2E"/>
<path d="M778 593H779V592H778V593ZM741 594H778V592H741V594ZM777 593V630H779V593H777Z" fill="#2B2C2E"/>
<path d="M815 593H816V592H815V593ZM778 594H815V592H778V594ZM814 593V630H816V593H814Z" fill="#2B2C2E"/>
<path d="M1 630V629H0V630H1ZM38 630H39V629H38V630ZM1 631H38V629H1V631ZM37 630V667H39V630H37ZM2 667V630H0V667H2Z" fill="#2B2C2E"/>
<path d="M75 630H76V629H75V630ZM38 631H75V629H38V631ZM74 630V667H76V630H74Z" fill="#2B2C2E"/>
<path d="M112 630H113V629H112V630ZM75 631H112V629H75V631ZM111 630V667H113V630H111Z" fill="#2B2C2E"/>
<path d="M149 630H150V629H149V630ZM112 631H149V629H112V631ZM148 630V667H150V630H148Z" fill="#2B2C2E"/>
<path d="M186 630H187V629H186V630ZM149 631H186V629H149V631ZM185 630V667H187V630H185Z" fill="#2B2C2E"/>
<path d="M223 630H224V629H223V630ZM186 631H223V629H186V631ZM222 630V667H224V630H222Z" fill="#2B2C2E"/>
<path d="M260 630H261V629H260V630ZM223 631H260V629H223V631ZM259 630V667H261V630H259Z" fill="#2B2C2E"/>
<path d="M297 630H298V629H297V630ZM260 631H297V629H260V631ZM296 630V667H298V630H296Z" fill="#2B2C2E"/>
<path d="M334 630H335V629H334V630ZM297 631H334V629H297V631ZM333 630V667H335V630H333Z" fill="#2B2C2E"/>
<path d="M371 630H372V629H371V630ZM334 631H371V629H334V631ZM370 630V667H372V630H370Z" fill="#2B2C2E"/>
<path d="M408 630H409V629H408V630ZM371 631H408V629H371V631ZM407 630V667H409V630H407Z" fill="#2B2C2E"/>
<path d="M408 630V629H407V630H408ZM445 630H446V629H445V630ZM408 631H445V629H408V631ZM444 630V667H446V630H444ZM409 667V630H407V667H409Z" fill="#2B2C2E"/>
<path d="M482 630H483V629H482V630ZM445 631H482V629H445V631ZM481 630V667H483V630H481Z" fill="#2B2C2E"/>
<path d="M519 630H520V629H519V630ZM482 631H519V629H482V631ZM518 630V667H520V630H518Z" fill="#2B2C2E"/>
<path d="M556 630H557V629H556V630ZM519 631H556V629H519V631ZM555 630V667H557V630H555Z" fill="#2B2C2E"/>
<path d="M593 630H594V629H593V630ZM556 631H593V629H556V631ZM592 630V667H594V630H592Z" fill="#2B2C2E"/>
<path d="M630 630H631V629H630V630ZM593 631H630V629H593V631ZM629 630V667H631V630H629Z" fill="#2B2C2E"/>
<path d="M667 630H668V629H667V630ZM630 631H667V629H630V631ZM666 630V667H668V630H666Z" fill="#2B2C2E"/>
<path d="M704 630H705V629H704V630ZM667 631H704V629H667V631ZM703 630V667H705V630H703Z" fill="#2B2C2E"/>
<path d="M741 630H742V629H741V630ZM704 631H741V629H704V631ZM740 630V667H742V630H740Z" fill="#2B2C2E"/>
<path d="M778 630H779V629H778V630ZM741 631H778V629H741V631ZM777 630V667H779V630H777Z" fill="#2B2C2E"/>
<path d="M815 630H816V629H815V630ZM778 631H815V629H778V631ZM814 630V667H816V630H814Z" fill="#2B2C2E"/>
<path d="M1 667V666H0V667H1ZM38 667H39V666H38V667ZM1 668H38V666H1V668ZM37 667V704H39V667H37ZM2 704V667H0V704H2Z" fill="#2B2C2E"/>
<path d="M75 667H76V666H75V667ZM38 668H75V666H38V668ZM74 667V704H76V667H74Z" fill="#2B2C2E"/>
<path d="M112 667H113V666H112V667ZM75 668H112V666H75V668ZM111 667V704H113V667H111Z" fill="#2B2C2E"/>
<path d="M149 667H150V666H149V667ZM112 668H149V666H112V668ZM148 667V704H150V667H148Z" fill="#2B2C2E"/>
<path d="M186 667H187V666H186V667ZM149 668H186V666H149V668ZM185 667V704H187V667H185Z" fill="#2B2C2E"/>
<path d="M223 667H224V666H223V667ZM186 668H223V666H186V668ZM222 667V704H224V667H222Z" fill="#2B2C2E"/>
<path d="M260 667H261V666H260V667ZM223 668H260V666H223V668ZM259 667V704H261V667H259Z" fill="#2B2C2E"/>
<path d="M297 667H298V666H297V667ZM260 668H297V666H260V668ZM296 667V704H298V667H296Z" fill="#2B2C2E"/>
<path d="M334 667H335V666H334V667ZM297 668H334V666H297V668ZM333 667V704H335V667H333Z" fill="#2B2C2E"/>
<path d="M371 667H372V666H371V667ZM334 668H371V666H334V668ZM370 667V704H372V667H370Z" fill="#2B2C2E"/>
<path d="M408 667H409V666H408V667ZM371 668H408V666H371V668ZM407 667V704H409V667H407Z" fill="#2B2C2E"/>
<path d="M408 667V666H407V667H408ZM445 667H446V666H445V667ZM408 668H445V666H408V668ZM444 667V704H446V667H444ZM409 704V667H407V704H409Z" fill="#2B2C2E"/>
<path d="M482 667H483V666H482V667ZM445 668H482V666H445V668ZM481 667V704H483V667H481Z" fill="#2B2C2E"/>
<path d="M519 667H520V666H519V667ZM482 668H519V666H482V668ZM518 667V704H520V667H518Z" fill="#2B2C2E"/>
<path d="M556 667H557V666H556V667ZM519 668H556V666H519V668ZM555 667V704H557V667H555Z" fill="#2B2C2E"/>
<path d="M593 667H594V666H593V667ZM556 668H593V666H556V668ZM592 667V704H594V667H592Z" fill="#2B2C2E"/>
<path d="M630 667H631V666H630V667ZM593 668H630V666H593V668ZM629 667V704H631V667H629Z" fill="#2B2C2E"/>
<path d="M667 667H668V666H667V667ZM630 668H667V666H630V668ZM666 667V704H668V667H666Z" fill="#2B2C2E"/>
<path d="M704 667H705V666H704V667ZM667 668H704V666H667V668ZM703 667V704H705V667H703Z" fill="#2B2C2E"/>
<path d="M741 667H742V666H741V667ZM704 668H741V666H704V668ZM740 667V704H742V667H740Z" fill="#2B2C2E"/>
<path d="M778 667H779V666H778V667ZM741 668H778V666H741V668ZM777 667V704H779V667H777Z" fill="#2B2C2E"/>
<path d="M815 667H816V666H815V667ZM778 668H815V666H778V668ZM814 667V704H816V667H814Z" fill="#2B2C2E"/>
<path d="M1 704V703H0V704H1ZM38 704H39V703H38V704ZM38 741V742H39V741H38ZM1 741H0V742H1V741ZM1 705H38V703H1V705ZM37 704V741H39V704H37ZM38 740H1V742H38V740ZM2 741V704H0V741H2Z" fill="#2B2C2E"/>
<path d="M75 704H76V703H75V704ZM75 741V742H76V741H75ZM38 705H75V703H38V705ZM74 704V741H76V704H74ZM75 740H38V742H75V740Z" fill="#2B2C2E"/>
<path d="M112 704H113V703H112V704ZM112 741V742H113V741H112ZM75 705H112V703H75V705ZM111 704V741H113V704H111ZM112 740H75V742H112V740Z" fill="#2B2C2E"/>
<path d="M149 704H150V703H149V704ZM149 741V742H150V741H149ZM112 705H149V703H112V705ZM148 704V741H150V704H148ZM149 740H112V742H149V740Z" fill="#2B2C2E"/>
<path d="M186 704H187V703H186V704ZM186 741V742H187V741H186ZM149 705H186V703H149V705ZM185 704V741H187V704H185ZM186 740H149V742H186V740Z" fill="#2B2C2E"/>
<path d="M223 704H224V703H223V704ZM223 741V742H224V741H223ZM186 705H223V703H186V705ZM222 704V741H224V704H222ZM223 740H186V742H223V740Z" fill="#2B2C2E"/>
<path d="M260 704H261V703H260V704ZM260 741V742H261V741H260ZM223 705H260V703H223V705ZM259 704V741H261V704H259ZM260 740H223V742H260V740Z" fill="#2B2C2E"/>
<path d="M297 704H298V703H297V704ZM297 741V742H298V741H297ZM260 705H297V703H260V705ZM296 704V741H298V704H296ZM297 740H260V742H297V740Z" fill="#2B2C2E"/>
<path d="M334 704H335V703H334V704ZM334 741V742H335V741H334ZM297 705H334V703H297V705ZM333 704V741H335V704H333ZM334 740H297V742H334V740Z" fill="#2B2C2E"/>
<path d="M371 704H372V703H371V704ZM371 741V742H372V741H371ZM334 705H371V703H334V705ZM370 704V741H372V704H370ZM371 740H334V742H371V740Z" fill="#2B2C2E"/>
<path d="M408 704H409V703H408V704ZM408 741V742H409V741H408ZM371 705H408V703H371V705ZM407 704V741H409V704H407ZM408 740H371V742H408V740Z" fill="#2B2C2E"/>
<path d="M408 704V703H407V704H408ZM445 704H446V703H445V704ZM445 741V742H446V741H445ZM408 741H407V742H408V741ZM408 705H445V703H408V705ZM444 704V741H446V704H444ZM445 740H408V742H445V740ZM409 741V704H407V741H409Z" fill="#2B2C2E"/>
<path d="M482 704H483V703H482V704ZM482 741V742H483V741H482ZM445 705H482V703H445V705ZM481 704V741H483V704H481ZM482 740H445V742H482V740Z" fill="#2B2C2E"/>
<path d="M519 704H520V703H519V704ZM519 741V742H520V741H519ZM482 705H519V703H482V705ZM518 704V741H520V704H518ZM519 740H482V742H519V740Z" fill="#2B2C2E"/>
<path d="M556 704H557V703H556V704ZM556 741V742H557V741H556ZM519 705H556V703H519V705ZM555 704V741H557V704H555ZM556 740H519V742H556V740Z" fill="#2B2C2E"/>
<path d="M593 704H594V703H593V704ZM593 741V742H594V741H593ZM556 705H593V703H556V705ZM592 704V741H594V704H592ZM593 740H556V742H593V740Z" fill="#2B2C2E"/>
<path d="M630 704H631V703H630V704ZM630 741V742H631V741H630ZM593 705H630V703H593V705ZM629 704V741H631V704H629ZM630 740H593V742H630V740Z" fill="#2B2C2E"/>
<path d="M667 704H668V703H667V704ZM667 741V742H668V741H667ZM630 705H667V703H630V705ZM666 704V741H668V704H666ZM667 740H630V742H667V740Z" fill="#2B2C2E"/>
<path d="M704 704H705V703H704V704ZM704 741V742H705V741H704ZM667 705H704V703H667V705ZM703 704V741H705V704H703ZM704 740H667V742H704V740Z" fill="#2B2C2E"/>
<path d="M741 704H742V703H741V704ZM741 741V742H742V741H741ZM704 705H741V703H704V705ZM740 704V741H742V704H740ZM741 740H704V742H741V740Z" fill="#2B2C2E"/>
<path d="M778 704H779V703H778V704ZM778 741V742H779V741H778ZM741 705H778V703H741V705ZM777 704V741H779V704H777ZM778 740H741V742H778V740Z" fill="#2B2C2E"/>
<path d="M815 704H816V703H815V704ZM815 741V742H816V741H815ZM778 705H815V703H778V705ZM814 704V741H816V704H814ZM815 740H778V742H815V740Z" fill="#2B2C2E"/>
<rect x="186" y="186" width="444" height="370" stroke="#5A5C60" stroke-width="2"/>
<rect x="407" y="374" width="7" height="2" transform="rotate(-90 407 374)" fill="#5A5C60"/>
<rect x="1" y="370" width="814" height="2" fill="#5A5C60"/>
<rect x="407" y="1" width="2" height="740" fill="#5A5C60"/>
<path d="M778 1V0H777V1H778ZM778 2H815V0H778V2ZM779 38V1H777V38H779Z" fill="#5A5C60"/>
<path d="M741 38V37H740V38H741ZM741 39H778V37H741V39ZM742 75V38H740V75H742Z" fill="#5A5C60"/>
<path d="M704 75V74H703V75H704ZM704 76H741V74H704V76ZM705 112V75H703V112H705Z" fill="#5A5C60"/>
<path d="M667 112V111H666V112H667ZM667 113H704V111H667V113ZM668 149V112H666V149H668Z" fill="#5A5C60"/>
<path d="M630 149V148H629V149H630ZM630 150H667V148H630V150ZM631 186V149H629V186H631Z" fill="#5A5C60"/>
<path d="M593 186V185H592V186H593ZM593 187H630V185H593V187ZM594 223V186H592V223H594Z" fill="#5A5C60"/>
<path d="M556 223V222H555V223H556ZM556 224H593V222H556V224ZM557 260V223H555V260H557Z" fill="#5A5C60"/>
<path d="M519 260V259H518V260H519ZM519 261H556V259H519V261ZM520 297V260H518V297H520Z" fill="#5A5C60"/>
<path d="M482 297V296H481V297H482ZM482 298H519V296H482V298ZM483 334V297H481V334H483Z" fill="#5A5C60"/>
<path d="M445 334V333H444V334H445ZM445 335H482V333H445V335ZM446 371V334H444V371H446Z" fill="#5A5C60"/>
<path d="M445 408H444V409H445V408ZM482 407H445V409H482V407ZM446 408V371H444V408H446Z" fill="#5A5C60"/>
<path d="M482 445H481V446H482V445ZM519 444H482V446H519V444ZM483 445V408H481V445H483Z" fill="#5A5C60"/>
<path d="M519 482H518V483H519V482ZM556 481H519V483H556V481ZM520 482V445H518V482H520Z" fill="#5A5C60"/>
<path d="M556 519H555V520H556V519ZM593 518H556V520H593V518ZM557 519V482H555V519H557Z" fill="#5A5C60"/>
<path d="M593 556H592V557H593V556ZM630 555H593V557H630V555ZM594 556V519H592V556H594Z" fill="#5A5C60"/>
<path d="M630 593H629V594H630V593ZM667 592H630V594H667V592ZM631 593V556H629V593H631Z" fill="#5A5C60"/>
<path d="M667 630H666V631H667V630ZM704 629H667V631H704V629ZM668 630V593H666V630H668Z" fill="#5A5C60"/>
<path d="M704 667H703V668H704V667ZM741 666H704V668H741V666ZM705 667V630H703V667H705Z" fill="#5A5C60"/>
<path d="M741 704H740V705H741V704ZM778 703H741V705H778V703ZM742 704V667H740V704H742Z" fill="#5A5C60"/>
<path d="M778 741H777V742H778V741ZM815 740H778V742H815V740ZM779 741V704H777V741H779Z" fill="#5A5C60"/>
<path d="M38 1V0H39V1H38ZM38 2H1V0H38V2ZM37 38V1H39V38H37Z" fill="#5A5C60"/>
<path d="M75 38V37H76V38H75ZM75 39H38V37H75V39ZM74 75V38H76V75H74Z" fill="#5A5C60"/>
<path d="M112 75V74H113V75H112ZM112 76H75V74H112V76ZM111 112V75H113V112H111Z" fill="#5A5C60"/>
<path d="M149 112V111H150V112H149ZM149 113H112V111H149V113ZM148 149V112H150V149H148Z" fill="#5A5C60"/>
<path d="M186 149V148H187V149H186ZM186 150H149V148H186V150ZM185 186V149H187V186H185Z" fill="#5A5C60"/>
<path d="M223 186V185H224V186H223ZM223 187H186V185H223V187ZM222 223V186H224V223H222Z" fill="#5A5C60"/>
<path d="M260 223V222H261V223H260ZM260 224H223V222H260V224ZM259 260V223H261V260H259Z" fill="#5A5C60"/>
<path d="M297 260V259H298V260H297ZM297 261H260V259H297V261ZM296 297V260H298V297H296Z" fill="#5A5C60"/>
<path d="M334 297V296H335V297H334ZM334 298H297V296H334V298ZM333 334V297H335V334H333Z" fill="#5A5C60"/>
<path d="M371 334V333H372V334H371ZM371 335H334V333H371V335ZM370 371V334H372V371H370Z" fill="#5A5C60"/>
<path d="M371 408H372V409H371V408ZM334 407H371V409H334V407ZM370 408V371H372V408H370Z" fill="#5A5C60"/>
<path d="M334 445H335V446H334V445ZM297 444H334V446H297V444ZM333 445V408H335V445H333Z" fill="#5A5C60"/>
<path d="M297 482H298V483H297V482ZM260 481H297V483H260V481ZM296 482V445H298V482H296Z" fill="#5A5C60"/>
<path d="M260 519H261V520H260V519ZM223 518H260V520H223V518ZM259 519V482H261V519H259Z" fill="#5A5C60"/>
<path d="M223 556H224V557H223V556ZM186 555H223V557H186V555ZM222 556V519H224V556H222Z" fill="#5A5C60"/>
<path d="M186 593H187V594H186V593ZM149 592H186V594H149V592ZM185 593V556H187V593H185Z" fill="#5A5C60"/>
<path d="M149 630H150V631H149V630ZM112 629H149V631H112V629ZM148 630V593H150V630H148Z" fill="#5A5C60"/>
<path d="M112 667H113V668H112V667ZM75 666H112V668H75V666ZM111 667V630H113V667H111Z" fill="#5A5C60"/>
<path d="M75 704H76V705H75V704ZM38 703H75V705H38V703ZM74 704V667H76V704H74Z" fill="#5A5C60"/>
<path d="M38 741H39V742H38V741ZM1 740H38V742H1V740ZM37 741V704H39V741H37Z" fill="#5A5C60"/>
</svg>
